<svg xmlns="http://www.w3.org/2000/svg" viewBox="0 0 640 360" font-family="Inter, 'Segoe UI', sans-serif">
  <line x1="70" y1="180" x2="600" y2="180" stroke="rgba(255,255,255,0.07)" stroke-width="2"/>
  <line x1="70" y1="60" x2="600" y2="60" stroke="rgba(255,255,255,0.07)" stroke-width="2"/>
  <line x1="70" y1="300" x2="600" y2="300" stroke="#8b8fa3" stroke-width="2"/>
  <line x1="70" y1="60" x2="70" y2="300" stroke="#8b8fa3" stroke-width="2"/>
  <text x="62" y="64" text-anchor="end" font-size="11" fill="#8b8fa3">100%</text>
  <text x="62" y="184" text-anchor="end" font-size="11" fill="#8b8fa3">50%</text>
  <text x="62" y="304" text-anchor="end" font-size="11" fill="#8b8fa3">0%</text>
  <text x="30" y="180" transform="rotate(-90 30 180)" text-anchor="middle" font-size="12" font-weight="700" letter-spacing="2" fill="#8b8fa3">JOB SURVIVAL %</text>
  <text x="70" y="320" text-anchor="middle" font-size="11" fill="#8b8fa3">0</text>
  <text x="202" y="320" text-anchor="middle" font-size="11" fill="#8b8fa3">2</text>
  <text x="335" y="320" text-anchor="middle" font-size="11" fill="#8b8fa3">4</text>
  <text x="468" y="320" text-anchor="middle" font-size="11" fill="#8b8fa3">6</text>
  <text x="600" y="320" text-anchor="middle" font-size="11" fill="#8b8fa3">8</text>
  <text x="335" y="344" text-anchor="middle" font-size="12" fill="#8b8fa3">hours into the job</text>
  <path d="M70 66 C 260 70, 440 80, 600 94" fill="none" stroke="#e8b64c" stroke-width="2.5"/>
  <text x="480" y="70" text-anchor="middle" font-size="13" font-weight="700" fill="#e8b64c">99.9% host</text>
  <path d="M70 68 C 260 76, 430 112, 600 168" fill="none" stroke="#ff6b6b" stroke-width="2.5"/>
  <text x="540" y="192" text-anchor="middle" font-size="13" font-weight="700" fill="#ff6b6b">93% host</text>
  <line x1="401" y1="113" x2="401" y2="296" stroke="rgba(255,107,107,0.4)" stroke-width="2" stroke-dasharray="4 5"/>
  <circle cx="401" cy="113" r="10" fill="none" stroke="#ff6b6b" stroke-width="2"/>
  <line x1="395" y1="107" x2="407" y2="119" stroke="#ff6b6b" stroke-width="3"/>
  <line x1="407" y1="107" x2="395" y2="119" stroke="#ff6b6b" stroke-width="3"/>
  <text x="401" y="144" text-anchor="middle" font-size="12" fill="#ff6b6b">typical death point ~hour 5</text>
</svg>
